Coordinates
version=1
nRows=22
nColumns=24
inDegrees=yes

Units are S.I. units (second, meters, Newtons, ...)
Angles are in degrees.

endheader
time	pelvis_tilt	pelvis_list	pelvis_rotation	pelvis_tx	pelvis_ty	pelvis_tz	hip_flexion_r	hip_adduction_r	hip_rotation_r	knee_angle_r	ankle_angle_r	subtalar_angle_r	mtp_angle_r	hip_flexion_l	hip_adduction_l	hip_rotation_l	knee_angle_l	ankle_angle_l	subtalar_angle_l	mtp_angle_l	lumbar_extension	lumbar_bending	lumbar_rotation
      5.19000000	     32.71543198	      4.37169365	      6.28850492	      0.20545142	      0.67873072	     -0.26326983	    -28.88650767	      2.22378898	    -15.45941674	     -9.01414771	     16.51927314	      9.78541431	      0.00000000	    -17.44382788	     -3.30292607	     -8.60241463	    -61.08136564	     10.66552808	     -5.13357208	      0.00000000	    -60.45900996	      1.09632658	      1.52235685
      5.19500000	     32.56119392	      4.43201774	      6.01618683	      0.21031441	      0.67901007	     -0.26331787	    -29.35063087	      2.07958709	    -15.51006162	     -8.67307980	     16.74794360	     10.10361371	      0.00000000	    -16.65820066	     -2.84583800	     -8.65723088	    -60.38223823	     11.26548370	     -4.05213910	      0.00000000	    -60.41521274	      0.89343540	      1.65408347
      5.20000000	     32.41279029	      4.49045561	      5.75791288	      0.21515692	      0.67920890	     -0.26338237	    -29.80406014	      1.94337094	    -15.58001422	     -8.35533879	     16.98584241	     10.39206607	      0.00000000	    -15.88803629	     -2.40214392	     -8.69668072	    -59.61702682	     11.78990697	     -3.03158357	      0.00000000	    -60.38564290	      0.69216769	      1.78507509
      5.20500000	     32.28138676	      4.53180696	      5.51596424	      0.22001200	      0.67933237	     -0.26345611	    -30.26025584	      1.83236273	    -15.66202836	     -8.06511073	     17.25066822	     10.69618858	      0.00000000	    -15.15965706	     -1.99747377	     -8.73921204	    -58.77088589	     12.28015786	     -2.08004852	      0.00000000	    -60.36520270	      0.51826259	      1.93352106
      5.21000000	     32.16018989	      4.56799185	      5.28557562	      0.22485817	      0.67938551	     -0.26357169	    -30.70667561	      1.72708111	    -15.76004305	     -7.81166498	     17.52992146	     10.96866054	      0.00000000	    -14.46051161	     -1.60580086	     -8.76951505	    -57.85006765	     12.69500863	     -1.21331684	      0.00000000	    -60.35576720	      0.36440107	      2.08017764
      5.21500000	     32.05070776	      4.59336327	      5.07088005	      0.22971052	      0.67936372	     -0.26371003	    -31.14851264	      1.63733970	    -15.86364810	     -7.59121829	     17.83057762	     11.22869727	      0.00000000	    -13.79463956	     -1.24140936	     -8.79293269	    -56.85809589	     13.05705924	     -0.43299177	      0.00000000	    -60.35729092	      0.22872613	      2.22925603
      5.22000000	     31.95673212	      4.60668482	      4.86835961	      0.23457321	      0.67927092	     -0.26386957	    -31.59050079	      1.56240094	    -15.97069413	     -7.40382175	     18.15453658	     11.47799991	      0.00000000	    -13.16967867	     -0.90443353	     -8.81361313	    -55.79264835	     13.37170581	      0.25056363	      0.00000000	    -60.37137135	      0.11151241	      2.38336457
      5.22500000	     31.86440853	      4.61608083	      4.69169690	      0.23942214	      0.67910928	     -0.26402374	    -32.01145709	      1.50572912	    -16.07976514	     -7.25902334	     18.49007394	     11.67099515	      0.00000000	    -12.56412364	     -0.59093638	     -8.81113546	    -54.65590829	     13.62571230	      0.84210648	      0.00000000	    -60.38695503	      0.00794449	      2.53142073
      5.23000000	     31.77966196	      4.61398800	      4.53223572	      0.24427877	      0.67887255	     -0.26418774	    -32.42434701	      1.46644147	    -16.18630310	     -7.14861738	     18.84800056	     11.84652622	      0.00000000	    -11.98968803	     -0.30803161	     -8.80410747	    -53.45425600	     13.84509143	      1.35081891	      0.00000000	    -60.40991295	     -0.07837250	      2.67864428
      5.23500000	     31.69602143	      4.60490076	      4.39228627	      0.24911688	      0.67856468	     -0.26438754	    -32.82069839	      1.43937835	    -16.30324193	     -7.06919322	     19.22229043	     11.97199995	      0.00000000	    -11.43553414	     -0.04670670	     -8.79456252	    -52.18895658	     14.03442837	      1.77002948	      0.00000000	    -60.44676705	     -0.13610654	      2.82779522
      5.24000000	     31.69106203	      4.56742225	      4.19854584	      0.25402874	      0.67824612	     -0.26457798	    -33.30338149	      1.40771800	    -16.34569702	     -6.99744154	     19.63766076	     12.22746907	      0.00000000	    -11.02908243	      0.18315082	     -8.84162412	    -50.81423567	     14.20211444	      2.11065686	      0.00000000	    -60.53474839	     -0.20457120	      2.98101162
      5.24500000	     31.59422989	      4.52919712	      4.17454740	      0.25885476	      0.67777931	     -0.26485120	    -33.66226743	      1.47179880	    -16.40363939	     -6.97097168	     19.99793294	     12.17418056	      0.00000000	    -10.48099496	      0.37543678	     -8.71183035	    -49.45289130	     14.31479986	      2.33425500	      0.00000000	    -60.55004805	     -0.17470780	      3.14185260
      5.25000000	     31.49219686	      4.48740536	      4.13709730	      0.26374064	      0.67726252	     -0.26511470	    -34.00790679	      1.52603239	    -16.46340744	     -6.97369820	     20.40275362	     12.17365199	      0.00000000	     -9.97544800	      0.54626949	     -8.63615196	    -48.00336327	     14.42746966	      2.57822349	      0.00000000	    -60.55515198	     -0.14415043	      3.24591559
      5.25500000	     31.53848879	      4.44970657	      3.89533175	      0.26867538	      0.67684361	     -0.26519532	    -34.49311698	      1.46034912	    -16.48803416	     -7.01877573	     20.87115926	     12.44513162	      0.00000000	     -9.74947411	      0.72459492	     -8.79832024	    -46.35738831	     14.48460818	      2.85218367	      0.00000000	    -60.69777227	     -0.27501550	      3.34879645
      5.26000000	     31.44761946	      4.41062945	      3.89156047	      0.27356595	      0.67624091	     -0.26540817	    -34.82680793	      1.53614086	    -16.54051156	     -7.08095338	     21.27551930	     12.35062124	      0.00000000	     -9.31806533	      0.85436954	     -8.73066964	    -44.76269327	     14.51258864	      3.06049454	      0.00000000	    -60.71385399	     -0.25065661	      3.42135986
      5.26500000	     31.34856663	      4.32589986	      3.94322282	      0.27845053	      0.67555909	     -0.26573075	    -35.15631259	      1.67772073	    -16.56269075	     -7.13111583	     21.67059776	     12.28321336	      0.00000000	     -8.89318495	      0.93186623	     -8.62480626	    -43.12309077	     14.60206020	      3.17819317	      0.00000000	    -60.71492676	     -0.14011757	      3.52353887
      5.27000000	     31.28975107	      4.30221580	      3.86007508	      0.28341817	      0.67493606	     -0.26585849	    -35.51586564	      1.68911642	    -16.59591689	     -7.23031377	     22.11942131	     12.30411751	      0.00000000	     -8.61524024	      1.05860011	     -8.71290344	    -41.31280484	     14.56294786	      3.42561565	      0.00000000	    -60.75400647	     -0.19537527	      3.50985688
      5.27500000	     31.20009158	      4.20446251	      3.93886777	      0.28835302	      0.67418190	     -0.26617965	    -35.85402425	      1.86175900	    -16.62774994	     -7.30044305	     22.50355422	     12.21463912	      0.00000000	     -8.27848193	      1.09746175	     -8.63283047	    -39.52343198	     14.64898361	      3.53003002	      0.00000000	    -60.74596464	     -0.07460957	      3.62343046
      5.28000000	     31.10074221	      4.15932486	      3.97143934	      0.29337789	      0.67343176	     -0.26640210	    -36.19004524	      1.96386470	    -16.67365354	     -7.38048514	     22.90700774	     12.13498734	      0.00000000	     -8.00698562	      1.17432375	     -8.66013411	    -37.61104749	     14.65364469	      3.74513173	      0.00000000	    -60.72167464	     -0.04797914	      3.64410431
      5.28500000	     31.27231817	      4.09612255	      3.75480006	      0.29838097	      0.67288366	     -0.26648182	    -36.81486834	      1.94832664	    -16.54773764	     -7.45066661	     23.31113751	     12.19393714	      0.00000000	     -8.16492197	      1.24141440	     -9.01387634	    -35.48434030	     14.59422646	      4.02921535	      0.00000000	    -60.98127349	     -0.14622513	      3.71616702
      5.29000000	     31.11327048	      4.01791435	      3.90100635	      0.30339167	      0.67202766	     -0.26684634	    -37.08223799	      2.13791575	    -16.63889482	     -7.54540601	     23.62670154	     12.04392437	      0.00000000	     -7.86733684	      1.27159381	     -8.97987508	    -33.48710616	     14.56962282	      4.25252847	      0.00000000	    -60.89587495	     -0.01980814	      3.77062296
      5.29500000	     30.97152734	      3.95501975	      4.00289173	      0.30847420	      0.67117812	     -0.26712055	    -37.38547077	      2.29763504	    -16.70726110	     -7.61885186	     23.96239881	     11.93983184	      0.00000000	     -7.65718564	      1.30083223	     -9.08535127	    -31.39129050	     14.50691150	      4.60122844	      0.00000000	    -60.81309953	      0.06228315	      3.72692362
